HIERARCHY
ROOT Hips
{
    OFFSET 0.000000 0.000000 0.000000
    CHANNELS 6 Xposition Yposition Zposition Zrotation Xrotation Yrotation
    JOINT Spine
    {
        OFFSET -0.000000 7.236184 0.000000
        CHANNELS 3 Zrotation Xrotation Yrotation
        JOINT Spine1
        {
            OFFSET -0.000000 20.420147 0.000000
            CHANNELS 3 Zrotation Xrotation Yrotation
            JOINT Neck
            {
                OFFSET -0.000000 20.336288 1.848754
                CHANNELS 3 Zrotation Xrotation Yrotation
                JOINT Head
                {
                    OFFSET -0.000000 12.354461 -1.764923
                    CHANNELS 3 Zrotation Xrotation Yrotation
                    End Site
                    {
                        OFFSET -0.000000 22.061537 0.000000
                    }
                }
            }
            JOINT LeftShoulder
            {
                OFFSET 3.573296 18.396038 -0.314103
                CHANNELS 3 Zrotation Xrotation Yrotation
                JOINT LeftArm
                {
                    OFFSET 10.880760 0.000000 0.000000
                    CHANNELS 3 Zrotation Xrotation Yrotation
                    JOINT LeftForeArm
                    {
                        OFFSET 27.185530 0.000000 0.000000
                        CHANNELS 3 Zrotation Xrotation Yrotation
                        JOINT LeftHand
                        {
                            OFFSET 27.825975 0.000000 0.000000
                            CHANNELS 3 Zrotation Xrotation Yrotation
                            End Site
                            {
                                OFFSET 13.236923 0.000000 0.000000
                            }
                        }
                    }
                }
            }
            JOINT RightShoulder
            {
                OFFSET -3.474926 18.396038 -0.314103
                CHANNELS 3 Zrotation Xrotation Yrotation
                JOINT RightArm
                {
                    OFFSET -10.880760 0.000000 0.000000
                    CHANNELS 3 Zrotation Xrotation Yrotation
                    JOINT RightForeArm
                    {
                        OFFSET -27.185530 0.000000 0.000000
                        CHANNELS 3 Zrotation Xrotation Yrotation
                        JOINT RightHand
                        {
                            OFFSET -27.825975 0.000000 0.000000
                            CHANNELS 3 Zrotation Xrotation Yrotation
                            End Site
                            {
                                OFFSET -13.236923 0.000000 0.000000
                            }
                        }
                    }
                }
            }
        }
    }
    JOINT LeftUpLeg
    {
        OFFSET 8.824615 0.000000 0.000000
        CHANNELS 3 Zrotation Xrotation Yrotation
        JOINT LeftLeg
        {
            OFFSET -0.000000 -35.111282 0.000000
            CHANNELS 3 Zrotation Xrotation Yrotation
            JOINT LeftFoot
            {
                OFFSET -0.000000 -42.324711 0.000000
                CHANNELS 3 Zrotation Xrotation Yrotation
                JOINT LeftToeBase
                {
                    OFFSET -0.000000 -5.735999 13.236923
                    CHANNELS 3 Zrotation Xrotation Yrotation
                    End Site
                    {
                        OFFSET -0.000000 0.000000 3.529846
                    }
                }
            }
        }
    }
    JOINT RightUpLeg
    {
        OFFSET -8.824615 0.000000 0.000000
        CHANNELS 3 Zrotation Xrotation Yrotation
        JOINT RightLeg
        {
            OFFSET -0.000000 -35.111282 0.000000
            CHANNELS 3 Zrotation Xrotation Yrotation
            JOINT RightFoot
            {
                OFFSET -0.000000 -42.324711 0.000000
                CHANNELS 3 Zrotation Xrotation Yrotation
                JOINT RightToeBase
                {
                    OFFSET -0.000000 -5.735999 13.236923
                    CHANNELS 3 Zrotation Xrotation Yrotation
                    End Site
                    {
                        OFFSET -0.000000 0.000000 3.529846
                    }
                }
            }
        }
    }
}
MOTION
Frames:    7
Frame Time:    0.008333
-2.808423    80.819092    104.622078    0.221520    -4.226477    -177.163345    -1.810206    -9.252021    0.614286    1.110264    4.496428    0.717265    3.908524    5.996993    -2.850121    5.520123    2.332676    -2.660321    0.310858    18.270226    -2.040480    -50.278934    43.360214    -32.482510    -0.191589    -8.070341    -11.535982    16.614916    -7.623588    3.219814    7.245026    19.205574    -5.778633    38.012146    47.653084    37.136822    -1.985565    -9.764123    18.756126    -15.314066    -8.963625    -3.595463    2.068198    -12.102936    -0.720536    -0.684356    23.230440    -5.035039    -2.948730    -13.653166    -8.217359    0.621282    -1.172780    -0.690140    -3.959437    -7.696244    4.977518    4.204177    17.491774    2.273467    1.785680    -8.810583    -13.305496    -0.337713    -3.015732    0.366820
-2.766016    80.824486    104.709831    0.260372    -4.323168    -177.484940    -1.925381    -9.083910    0.517138    1.199973    4.379144    0.624328    4.084990    5.773788    -2.642560    5.427556    2.276925    -2.477907    0.417415    18.225929    -2.154432    -50.312298    43.272881    -32.412102    -0.247104    -7.995900    -11.446330    16.431767    -7.563035    3.196120    7.291087    19.151566    -5.866680    37.918606    47.615669    37.157448    -2.057980    -9.868031    18.845257    -15.233137    -9.070274    -3.494225    2.292561    -12.308513    -0.268593    -0.802789    23.366016    -4.872334    -3.117452    -13.678275    -8.439550    0.658823    -1.170365    -0.731838    -4.003009    -8.663537    5.012168    4.483459    18.756874    1.891029    2.116883    -8.733729    -12.813481    -0.330348    -3.358860    0.359000
-2.719776    80.831406    104.803848    0.297507    -4.415839    -177.839539    -2.046183    -8.896000    0.412510    1.294558    4.267874    0.523519    4.264279    5.535130    -2.413993    5.338102    2.201591    -2.274014    0.521280    18.180153    -2.271783    -50.306194    43.199772    -32.366600    -0.301717    -7.929471    -11.354012    16.232996    -7.511000    3.170299    7.332965    19.099199    -5.948530    37.847160    47.538532    37.166878    -2.128149    -9.974615    18.933104    -15.142179    -9.181072    -3.384969    2.519164    -12.498718    0.169669    -0.924025    23.486622    -4.667123    -3.294971    -13.702107    -8.659211    0.694519    -1.158071    -0.771473    -4.073509    -9.686162    5.036167    4.811466    20.092587    1.450377    2.506410    -8.624970    -12.256001    -0.325248    -3.716197    0.353642
-2.670454    80.839912    104.903351    0.332957    -4.504756    -178.225937    -2.168870    -8.692180    0.302308    1.391216    4.164974    0.416593    4.442864    5.285177    -2.166563    5.254345    2.105697    -2.050131    0.620977    18.133356    -2.392025    -50.251770    43.146244    -32.351101    -0.355209    -7.873260    -11.261591    16.017220    -7.469488    3.143476    7.370072    19.050177    -6.022972    37.800694    47.421196    37.162895    -2.195343    -10.084991    19.017941    -15.046899    -9.297067    -3.268149    2.746156    -12.672468    0.588548    -1.048050    23.590479    -4.413282    -3.482537    -13.725218    -8.878821    0.723192    -1.146225    -0.803305    -4.172949    -10.757236    5.042098    5.183868    21.487270    0.967657    2.956359    -8.485103    -11.646436    -0.320148    -4.082434    0.348284
-2.618186    80.849968    105.008194    0.368178    -4.590674    -178.645828    -2.289173    -8.474715    0.187785    1.486915    4.071364    0.304774    4.620486    5.026393    -1.900511    5.175539    1.988551    -1.806497    0.716719    18.084524    -2.515975    -50.141830    43.116909    -32.368484    -0.408278    -7.827610    -11.170700    15.783142    -7.438824    3.116820    7.403074    19.006250    -6.089950    37.780102    47.263676    37.143398    -2.260034    -10.200872    19.100321    -14.952947    -9.419551    -3.144809    2.976125    -12.830462    0.989251    -1.176659    23.678179    -4.106906    -3.681713    -13.749013    -9.101512    0.741057    -1.142608    -0.823143    -4.302249    -11.876627    5.022628    5.596325    22.938101    0.458248    3.470538    -8.314240    -10.996654    -0.312517    -4.455295    0.340171
-2.563630    80.861267    105.116928    0.403279    -4.673380    -179.096024    -2.402892    -8.248051    0.071374    1.577778    3.988590    0.189984    4.794900    4.764239    -1.619013    5.101787    1.851379    -1.546060    0.807960    18.032593    -2.643213    -49.971371    43.116093    -32.420624    -0.461061    -7.792223    -11.083562    15.533084    -7.418373    3.092194    7.432598    18.969181    -6.149323    37.785904    47.069092    37.106407    -2.322480    -10.321683    19.180815    -14.868615    -9.547111    -3.019372    3.208828    -12.971906    1.371052    -1.310205    23.750170    -3.750540    -3.891707    -13.774466    -9.327477    0.746596    -1.152696    -0.829311    -4.462035    -13.031730    4.969074    6.038240    24.426785    -0.056205    4.044837    -8.115102    -10.325943    -0.300366    -4.829142    0.327128
-2.507209    80.873146    105.228188    0.437403    -4.752352    -179.574081    -2.508277    -8.015144    -0.045704    1.661603    3.917557    0.073768    4.964082    4.502696    -1.324424    5.032020    1.695985    -1.271157    0.894328    17.976366    -2.773851    -49.735916    43.146397    -32.509411    -0.514815    -7.765341    -11.001346    15.269972    -7.406281    3.070941    7.458727    18.940361    -6.202152    37.818172    46.840782    37.049839    -2.383596    -10.445934    19.261181    -14.803542    -9.677046    -2.898023    3.444217    -13.096260    1.735663    -1.450039    23.807817    -3.348776    -4.111669    -13.802168    -9.555992    0.740930    -1.177758    -0.823055    -4.654646    -14.213146    4.869741    6.497584    25.941296    -0.555973    4.673170    -7.890774    -9.649485    -0.282497    -5.200632    0.307839
